<svg width="17" height="23" viewBox="0 0 17 23" fill="none" xmlns="http://www.w3.org/2000/svg">
<path d="M15.7593 0H4.68519C4.47222 0 4.47222 0 4.25926 0.209091L0 4.39091C0 4.39091 0 4.39091 0 4.6V22.5818C0 22.7909 0.212963 23 0.425926 23H15.7593C15.9722 23 16.1852 22.7909 16.1852 22.5818V0.418182C16.1852 0.209091 15.9722 0 15.7593 0ZM4.25926 1.46364V4.18182H1.49074L4.25926 1.46364ZM15.3333 21.9545H0.851852V5.01818H4.47222C4.68518 5.01818 4.89815 4.80909 4.89815 4.6V0.836364H15.1204V21.9545H15.3333Z" fill="#2D6EC4"/>
<path d="M3.8334 7.10938C3.62043 7.10938 3.40747 7.31847 3.40747 7.52756C3.40747 7.73665 3.62043 7.94574 3.8334 7.94574H12.5649C12.7778 7.94574 12.9908 7.73665 12.9908 7.52756C12.9908 7.31847 12.7778 7.10938 12.5649 7.10938H3.8334Z" fill="#2D6EC4"/>
<path d="M12.5646 11.082H3.83315C3.62019 11.082 3.40723 11.2911 3.40723 11.5002C3.40723 11.7093 3.62019 11.9184 3.83315 11.9184H12.5646C12.7776 11.9184 12.9906 11.7093 12.9906 11.5002C12.9906 11.2911 12.7776 11.082 12.5646 11.082Z" fill="#2D6EC4"/>
<path d="M12.5649 15.0547H3.8334C3.62043 15.0547 3.40747 15.2638 3.40747 15.4729C3.40747 15.682 3.62043 15.8911 3.8334 15.8911H12.5649C12.7778 15.8911 12.9908 15.682 12.9908 15.4729C12.9908 15.2638 12.7778 15.0547 12.5649 15.0547Z" fill="#2D6EC4"/>
<path d="M12.5646 19.0273H3.83315C3.62019 19.0273 3.40723 19.2364 3.40723 19.4455C3.40723 19.6546 3.62019 19.8637 3.83315 19.8637H12.5646C12.7776 19.8637 12.9906 19.6546 12.9906 19.4455C12.9906 19.2364 12.7776 19.0273 12.5646 19.0273Z" fill="#2D6EC4"/>
</svg>
