<svg width="25" height="25" viewBox="0 0 25 25" fill="none" xmlns="http://www.w3.org/2000/svg">
<path d="M21.8721 6.375C23.2324 8.53065 23.8192 11.0848 23.5362 13.618C23.2533 16.1511 22.1173 18.5128 20.315 20.3152C18.5126 22.1176 16.1509 23.2535 13.6177 23.5365C11.0845 23.8194 8.53041 23.2326 6.37476 21.8724" stroke="#2D6EC4" stroke-width="1.6" stroke-linecap="round" stroke-linejoin="round"/>
<path d="M14.8552 1.39453C16.089 1.67559 17.2661 2.16426 18.3361 2.83969" stroke="#2D6EC4" stroke-width="1.6" stroke-linecap="round" stroke-linejoin="round"/>
<path d="M1.39429 14.8555C1.67534 16.0893 2.16402 17.2663 2.83945 18.3364" stroke="#2D6EC4" stroke-width="1.6" stroke-linecap="round" stroke-linejoin="round"/>
<path d="M9.85567 1.39453C8.62188 1.67559 7.44482 2.16426 6.37476 2.83969" stroke="#2D6EC4" stroke-width="1.6" stroke-linecap="round" stroke-linejoin="round"/>
<path d="M2.83945 6.375C2.16402 7.44506 1.67534 8.62212 1.39429 9.85591" stroke="#2D6EC4" stroke-width="1.6" stroke-linecap="round" stroke-linejoin="round"/>
<path d="M12.3552 8.60547V16.1055" stroke="#2D6EC4" stroke-width="1.6" stroke-linecap="round" stroke-linejoin="round"/>
<path d="M9.23022 11.7305L12.3552 8.60547L15.4802 11.7305" stroke="#2D6EC4" stroke-width="1.6" stroke-linecap="round" stroke-linejoin="round"/>
</svg>
